# xmcd
#
# Track frame offsets: 
#        150
#        13578
#        27828
#        46275
#        65137
#        81656
#        93176
#        112578
#        125216
#        142653
#        156825
#        167917
#        181995
#        198018
#        210150
#        221662
#        238657
#        260287
#
# Disc length: 3567 seconds
#
# Revision: 0
# Processed by: cddbd v1.5.1PL0 Copyright (c) Steve Scherf et al.
# Submitted via: ExactAudioCopy v0.95b1
#
DISCID=f00ded12
DTITLE=Mauro Ferrarese - Big road Blues
DYEAR=1999
DGENRE=Blues
TTITLE0=One dime Blues
TTITLE1=Big Road Blues
TTITLE2=Jitterbug Swing
TTITLE3=Kindhearted Woman
TTITLE4=Blues `Round Midnight
TTITLE5=Aint No Tellin´
TTITLE6=Terraplane Blues
TTITLE7=Blues When It Rains
TTITLE8=Warm It Up To Me
TTITLE9=Police dog Blues
TTITLE10=You Just As Well To Let Her Go
TTITLE11=Avalon Blues
TTITLE12=Pony Blues
TTITLE13=Baby You Gotta Change Yo´ Mind
TTITLE14=Step It Up And Go
TTITLE15=Preachin´ Blues
TTITLE16=Dark Was The Night - ... Somebody On Your Bond
TTITLE17=Jesus Make Up My Dying Bed
EXTD=
EXTT0=
EXTT1=
EXTT2=
EXTT3=
EXTT4=
EXTT5=
EXTT6=
EXTT7=
EXTT8=
EXTT9=
EXTT10=
EXTT11=
EXTT12=
EXTT13=
EXTT14=
EXTT15=
EXTT16=
EXTT17=
PLAYORDER=
